<svg width="81" height="36" viewBox="0 0 81 36" fill="none" xmlns="http://www.w3.org/2000/svg">
<path d="M8.79445 35.8916C6.08283 35.8916 3.93918 35.2048 2.36351 33.8313C0.787836 32.4578 0 30.2892 0 27.3253C0 24.8675 0.51301 22.1386 1.53903 19.1386C2.56505 16.1386 4.21401 13.5542 6.48591 11.3855C8.75781 9.18073 11.616 8.07832 15.0605 8.07832C19.7509 8.07832 22.0961 10.9699 22.0961 16.753V16.8072C22.206 16.8434 22.4075 16.8614 22.7007 16.8614C23.9099 16.8614 25.3024 16.5542 26.878 15.9398C28.4537 15.2892 29.8828 14.512 31.1653 13.6084L31.66 15.0723C30.5974 16.1928 29.2049 17.1506 27.4827 17.9458C25.7971 18.7048 23.9466 19.247 21.9312 19.5723C21.638 22.8614 20.8868 25.7349 19.6776 28.1928C18.4684 30.6506 16.911 32.5482 15.0055 33.8855C13.1001 35.2229 11.0297 35.8916 8.79445 35.8916ZM10.9931 31.012C11.8725 31.012 12.752 30.5241 13.6314 29.5482C14.5108 28.5361 15.2804 27.1807 15.9399 25.4819C16.5995 23.747 17.0759 21.8313 17.369 19.7349C16.3797 19.5181 15.885 18.759 15.885 17.4578C15.885 15.9759 16.453 15 17.5889 14.5301C17.5156 13.3374 17.3324 12.5241 17.0393 12.0904C16.7461 11.6205 16.2331 11.3855 15.5002 11.3855C14.291 11.3855 13.1184 12.253 11.9824 13.988C10.8465 15.7229 9.9304 17.8012 9.23418 20.2229C8.53795 22.6446 8.18983 24.7771 8.18983 26.6205C8.18983 28.3554 8.39137 29.5301 8.79445 30.1446C9.19753 30.7229 9.9304 31.012 10.9931 31.012Z" fill="#8550FF"/>
<path d="M30.3658 36C28.6069 36 27.1778 35.4578 26.0785 34.3735C25.0158 33.2892 24.4845 31.6627 24.4845 29.494C24.4845 28.5904 24.6311 27.4157 24.9242 25.9699L28.2221 10.7349H26.4083L26.848 8.56627H28.6618L30.3108 1.08434L38.4457 0L36.5769 8.56627H39.8748L39.435 10.7349H36.1371L32.6193 27C32.4728 27.5422 32.3995 28.1205 32.3995 28.7349C32.3995 29.4578 32.5644 29.9819 32.8942 30.3072C33.2606 30.5964 33.8469 30.741 34.6531 30.741C35.7157 30.741 36.7051 30.3072 37.6212 29.4398C38.5373 28.5361 39.1969 27.3795 39.5999 25.9699H41.9085C40.5527 29.8735 38.8121 32.5301 36.6868 33.9398C34.5615 35.3133 32.4545 36 30.3658 36Z" fill="#8550FF"/>
<path d="M45.0196 36C43.2607 36 41.8316 35.4578 40.7323 34.3735C39.6697 33.2892 39.1383 31.6627 39.1383 29.494C39.1383 28.5904 39.2849 27.4157 39.578 25.9699L42.876 10.7349H41.0621L41.5018 8.56627H43.3157L44.9646 1.08434L53.0995 0L51.2307 8.56627H54.5286L54.0889 10.7349H50.791L47.2732 27C47.1266 27.5422 47.0533 28.1205 47.0533 28.7349C47.0533 29.4578 47.2182 29.9819 47.548 30.3072C47.9145 30.5964 48.5007 30.741 49.3069 30.741C50.3696 30.741 51.3589 30.3072 52.275 29.4398C53.1911 28.5361 53.8507 27.3795 54.2538 25.9699H56.5623C55.2065 29.8735 53.466 32.5301 51.3406 33.9398C49.2153 35.3133 47.1083 36 45.0196 36Z" fill="#8550FF"/>
<path d="M62.2568 35.8916C59.5452 35.8916 57.4016 35.2048 55.8259 33.8313C54.2502 32.4578 53.4624 30.2892 53.4624 27.3253C53.4624 24.8313 53.9571 22.1024 54.9464 19.1386C55.9358 16.1386 57.5481 13.5542 59.7834 11.3855C62.0186 9.18073 64.8768 8.07832 68.358 8.07832C72.6819 8.07832 75.0088 10.5181 75.3386 15.3976C76.1447 15.2169 76.8593 14.7831 77.4822 14.0964C78.1052 13.3735 78.6915 12.5602 79.2411 11.6566H81C80.0106 13.6084 79.1312 15.1446 78.3617 16.2651C77.5922 17.3494 76.5845 18.2349 75.3386 18.9217C75.1187 22.3193 74.4042 25.3012 73.1949 27.8675C72.0223 30.4337 70.4833 32.4217 68.5778 33.8313C66.6724 35.2048 64.5654 35.8916 62.2568 35.8916ZM64.4554 31.012C65.8112 31.012 67.0755 29.9277 68.248 27.759C69.4206 25.5904 70.2268 22.9157 70.6665 19.7349C69.7871 19.4096 69.3474 18.5964 69.3474 17.2952C69.3474 15.8855 69.8604 14.9458 70.8864 14.4759C70.8131 13.3193 70.6116 12.5241 70.2818 12.0904C69.9886 11.6205 69.4939 11.3855 68.7977 11.3855C67.5885 11.3855 66.4342 12.253 65.3349 13.988C64.2356 15.6867 63.3378 17.7651 62.6416 20.2229C61.982 22.6446 61.6522 24.7771 61.6522 26.6205C61.6522 28.3554 61.8537 29.5301 62.2568 30.1446C62.6599 30.7229 63.3928 31.012 64.4554 31.012Z" fill="#8550FF"/>
</svg>
